<svg xmlns="http://www.w3.org/2000/svg" xmlns:xlink="http://www.w3.org/1999/xlink" width="18" height="18" viewBox="0 0 18 18">
    <defs>
        <path id="a" d="M11.71 11l-.28-.27A6.471 6.471 0 0 0 13 6.5 6.5 6.5 0 1 0 6.5 13c1.61 0 3.09-.59 4.23-1.57l.27.28v.79l4.293 4.284a1 1 0 0 0 1.413 0l.078-.078a1 1 0 0 0 0-1.413L12.5 11h-.79zM2 6.5C2 4.01 4.01 2 6.5 2S11 4.01 11 6.5 8.99 11 6.5 11 2 8.99 2 6.5z"/>
    </defs>
    <g fill="none" fill-rule="evenodd">
        <mask id="b" fill="#fff">
            <use xlink:href="#a"/>
        </mask>
        <use fill="#979797" xlink:href="#a"/>
        <g fill="#979797" mask="url(#b)">
            <path d="M-3-3h24v24H-3z"/>
        </g>
    </g>
</svg>
